<?xml version="1.0" encoding="utf-8"?>
<!-- Generator: Adobe Illustrator 16.0.0, SVG Export Plug-In . SVG Version: 6.00 Build 0)  -->
<!DOCTYPE svg PUBLIC "-//W3C//DTD SVG 1.1//EN" "http://www.w3.org/Graphics/SVG/1.1/DTD/svg11.dtd">
<svg version="1.1" id="Layer_1" xmlns="http://www.w3.org/2000/svg" xmlns:xlink="http://www.w3.org/1999/xlink" x="0px" y="0px"
	 width="100%" height="100%" viewBox="0 145.14 841.889 304" enable-background="new 0 145.14 841.889 304"
	 xml:space="preserve">
<g>
	<path fill="none" d="M112.053,256.525c1.36-1.199,2.721-2.388,4.013-3.783c14.048-15.096,23.759-38.762,26.365-47.965
		c3.125-11.025,9.399-34.46,0.438-37.955c-3.241-1.257-7.242-0.668-10.415,1.811c-7.496,5.87-14.509,25.96-16.78,42.372
		c-2.642,18.948-1.372,26.698-4.291,45.475c0.288-0.219,0.565-0.449,0.842-0.681L112.053,256.525z"/>
	<path fill="none" d="M191.168,269.592c-1.35-1.592-9.02-8.58-18.765,6.204c-5.467,8.292-7.185,28.602-6.585,38.429
		c0.207,3.275,0.554,6.102,0.979,8.188c0.081-0.08,1.799,5.687,1.915,5.595c3.84-3.586,15.374-19.028,20.033-33.135
		C191.33,287.099,195.24,274.344,191.168,269.592z"/>
	<path fill="#EFEAE3" d="M312.206,248.821c-10.402-1.292-18.43,4.083-23.123,13.078c-3.554,6.804-3.312,16.561,5.789,19.999
		c1.661,0.622,8.211,0.957,8.211,0.957s3.356,6.942,1.972,18.591c-2.284,19.271-18.637,53.156-30.527,53.227
		c-11.891,0.067-12.871-26.504-12.871-37.956c0-58.553,12.641-70.604,22.018-85.193c7.07-11.002,16.63-22.95,22.847-34.425
		c4.082-7.542,7.347-14.877,7.623-22.754c0.38-10.564-5.952-16.273-16.008-13.807c-8.938,2.203-17.161,9.907-22.569,17.335
		c-19.629,27.044-36.755,74.94-41.46,119.665c-1.522,14.439-1.973,24.991-1.852,32.776c-14.913,19.434-40.994,22.524-57.498,5.433
		c18.073-14.382,40.123-33.284,44.274-56.8c4.141-23.446-5.951-39.211-26.698-34.287c-33.688,8.05-62.312,52.498-57.596,84.895
		c0.669,4.624,3.575,14.958,5.524,19.202c-14.151,6.78-31.358,2.549-50.214-5.075c-2.595-1.049-5.145-2.168-7.588-3.286
		c12.686-19.168,18.439-35.396,23.088-56.523c9.479-5.293,18.084-10.771,21.221-13.216c15.616-12.155,32.131-31.692,39.42-49.661
		c8.753-21.773,8.442-46.776-3.736-59.879c-6.193-6.666-15.928-7.958-20.563-7.842c-13.908,0.346-28.567,9.077-37.551,20.598
		c-23.55,30.229-20.355,58.299-25.118,96.081c-0.15,0.012-0.254,0.772-0.323,1.833c-12.329,0.715-25.708-3.402-39.649-14.277
		c-9.055-7.139-33.607,14.416-26.918,19.71c19.456,15.212,42.96,21.104,62.624,18.511c-2.596,12.259-6.183,24.208-11.776,35.567
		c-11.094-4.972-22.327-8.882-35.693-8.753c-9.377,0.113-33.838,20.54-15.581,20.412c37.644-0.368,63.386,36.708,103.623,26.71
		c11.269-2.813,22.247-8.211,31.843-14.07c4.174,4.313,9.388,8.108,15.892,11.199c25.061,11.845,52.008,0.957,71.556-17.253
		c0.634,1.648,1.188,2.41,1.378,2.859c10.414,24.922,42.938,23.517,59.002,12.905c12.617-8.338,23.481-18.822,30.517-38.843
		c9.018-25.662,9.849-42.627,4.854-61.021C328.179,256.64,320.545,249.836,312.206,248.821z M115.674,211.005
		c2.271-16.411,9.284-36.502,16.78-42.372c3.172-2.479,7.174-3.066,10.415-1.811c8.961,3.495,2.688,26.93-0.438,37.955
		c-2.606,9.203-12.317,32.869-26.365,47.965c-1.292,1.396-2.651,2.583-4.013,3.783l0.173-0.727
		c-0.276,0.231-0.554,0.462-0.842,0.681C114.302,237.703,113.032,229.953,115.674,211.005z M166.799,322.412
		c-0.426-2.086-0.773-4.912-0.979-8.188c-0.6-9.827,1.118-30.137,6.585-38.429c9.745-14.784,17.415-7.796,18.765-6.204
		c4.071,4.751,0.162,17.508-2.422,25.28c-4.659,14.105-16.192,29.549-20.033,33.135C168.598,328.097,166.88,322.332,166.799,322.412
		z"/>
	<path fill="#EFEAE3" d="M558.849,249.167c-10.402-1.292-18.43,4.083-23.125,13.078c-3.551,6.805-3.31,16.562,5.791,19.998
		c1.661,0.623,8.211,0.958,8.211,0.958s3.354,6.943,1.973,18.591c-2.284,19.271-18.638,53.155-30.526,53.226
		c-5.398,0.034-8.938-5.778-11.269-13.104c-4.694-16.469-4.557-40.122-1.466-55.288c1.477-7.543,3.921-12.052,1.927-14.416
		c-6.205-7.185-27.575,6.159-29.421,17.333c-2.434,14.395-4.198,33.562-2.837,50.307c-1.765,2.838-11.821,12.421-18.095,9.492
		c-6.137-2.86-11.925-11.74-13.574-17.646c-6.194-22.132,2.549-47.977,8.579-69.924c3.668-13.574-26.387-1.592-28.877,7.497
		c-2.642,9.549-6.609,20.689-8.12,35.787c-1.441,14.428-0.992,28.913-0.992,28.913c-13.125,23.063-42.925,14.899-41.057-21.024
		c0.404-7.727,1.725-40.908,10.275-71.695c4.158,0.294,7.802,0.508,10.494,0.571l-1.303-0.092c2.03,0.068,3.967,0.092,5.709,0.057
		c12.582,0,26.561-19.663,12.571-19.663c-11.539,0-13.776,0.005-20.639-0.086l0.074-0.098c0,0,6.919-14.324,18.35-30.92
		c2.006-2.918,11.164-20.103,1.268-25.833c-4.786-2.77-12.34-0.242-18.313,6.055c-9.618,10.137-20.009,35.573-25.499,50.283
		l-4.036-0.092c-10.011-0.267-9.008-0.646-18.96-1.13c-8.88-0.462-24.507,16.089-12.259,16.688c5.339,0.265,14.37,1.05,24.104,1.891
		c1.559,0.11,3.225,0.255,4.855,0.387c-4.537,13.056-8.488,27.138-10.264,38.584c-7.498,48.381-2.075,68.781,3.863,77.894
		c6.862,10.541,17.623,16.562,32.454,14.45c16.1-2.296,23.769-10.68,30.966-21.475c4.81,12.282,14.577,23.446,32.039,21.636
		c12.73-1.372,20.955-9.698,29.547-18.74c1.188,1.973,2.744,4.061,4.544,6.111c12.524,19.387,41.186,17.727,56.026,7.923
		c12.617-8.338,23.48-18.821,30.516-38.842c9.021-25.661,9.85-42.626,4.855-61.021C574.823,256.987,567.187,250.182,558.849,249.167
		z"/>
	<path fill="#EFEAE3" d="M619.625,242.074c6.968,2.226,15.34,0.011,20.448-5.72c6.689-7.602,4.43-17.53-5.466-20.68
		c-6.794-2.11-15.558,0.162-20.633,5.871C607.425,228.961,609.698,238.937,619.625,242.074z"/>
	<path fill="#EFEAE3" d="M444.085,242.074c6.966,2.226,15.338,0.011,20.446-5.72c6.688-7.602,4.43-17.53-5.467-20.68
		c-6.793-2.11-15.558,0.162-20.633,5.871C431.883,228.961,434.155,238.937,444.085,242.074z"/>
	<path fill="#EFEAE3" d="M818.511,228.35c10.426-0.98,31.059-18.846,10.541-16.885c-40.227,3.91-80.983,5.507-121.902,5.397
		c2.986-5.605,8.42-15.235,15.73-25.846c2.008-2.918,11.164-20.103,1.27-25.833c-4.786-2.77-12.34-0.242-18.313,6.055
		c-8.686,9.151-18.004,30.787-23.77,45.728c-1.893-0.155-4.129-0.335-8.107-0.53c-8.995-0.474-24.83,16.296-12.42,16.906
		c2.951,0.146,8.198,0.047,14.635-0.178c-0.06,0.155-0.115,0.3-0.174,0.455c-5.362,14.486-10.195,31.127-12.226,44.229
		c-3.967,25.566-4.267,43.167-2.838,55.577c-1.545,1.902-3.171,3.989-4.981,6.423c-1.765,2.838-11.82,12.421-18.095,9.492
		c-6.135-2.86-11.926-11.74-13.573-17.646c-6.193-22.132,2.549-47.978,8.58-69.924c3.667-13.574-26.388-1.592-28.879,7.497
		c-2.642,9.549-5.569,20.828-8.119,35.787c-5.154,30.182,2.804,47.263,3.079,47.009c4.811,12.281,13.158,20.101,30.619,18.29
		c12.733-1.372,20.956-9.698,29.548-18.74c1.512-2.007,2.872-3.944,4.176-5.836c1.27,4.291,2.779,7.554,4.348,9.965
		c6.862,10.541,17.622,16.562,32.454,14.45c14.37-2.053,20.379-8.962,27.887-18.521c5.812,11.993,11.533,15.396,16.584,17.575
		c9.999,4.336,25.038,1.466,33.249-6.62c-4.717,18.062-17.172,51.147-27.828,63.339c-7.035,6.955-20.09,12.341-27.841,7.912
		c-2.469-1.406-3.782-3.944-4.59-6.735c-1.626-3.057-4.706-6.896-9.618-5.997c-5.548,1.016-7.104,3.84-7.174,6.759
		c0.323,0.945,0.519,1.938,0.957,2.85c5.132,10.506,22.339,13.688,30.759,12.72c4.646-0.529,20.205-1.812,38.174-19.743
		c39.546-39.478,48.553-115.214,55.369-164.068c1.326-9.618-28.66,1.707-30.089,12.146c-2.585,18.313-5.248,32.396-7.358,46.362
		c-2.109,13.966-5.514,25.947-5.536,26.087c-3.688,3.875-12.2,7.564-14.843,6.839c-17.646-4.867-15.501-33.999-15.535-40.538
		c-0.092-15.489,4.972-30.644,9.238-46.085c3.748-13.541-26.353-1.593-28.844,7.461c-3.921,14.115-9.953,29.548-10.299,51.552
		c-0.034,1.938,0.842,10.922,1.338,16.192c-14.358,15.386-38.43,5.696-36.744-26.732c0.438-8.339,1.938-46.305,12.444-78.926
		C739.627,233.869,779.312,232.156,818.511,228.35z"/>
</g>
</svg>
